<?xml version="1.0" encoding="utf-8"?>
<!-- Generator: Adobe Illustrator 24.2.3, SVG Export Plug-In . SVG Version: 6.00 Build 0)  -->
<svg version="1.1" id="Layer_1" xmlns="http://www.w3.org/2000/svg" xmlns:xlink="http://www.w3.org/1999/xlink" x="0px" y="0px"
	 viewBox="0 0 200 20" style="enable-background:new 0 0 200 20;" xml:space="preserve">
<g>
	<g>
		<path d="M9.7,0c2.7,0,4.7,0.8,6.5,2.5c0.2,0.2,0.2,0.5,0,0.8l-2.1,2.2c-0.2,0.2-0.5,0.2-0.7,0c-1-0.9-2.3-1.4-3.6-1.4
			c-3,0-5.3,2.5-5.3,5.5c0,3,2.3,5.5,5.3,5.5c1.3,0,2.6-0.5,3.6-1.3c0.2-0.2,0.5-0.2,0.7,0l2.1,2.2c0.2,0.2,0.2,0.5,0,0.7
			c-1.8,1.8-4.1,2.6-6.5,2.6C4.3,19.4,0,15.1,0,9.7C0,4.3,4.3,0,9.7,0"/>
		<path d="M31.6,0c5.4,0,9.7,4.3,9.7,9.7c0,5.4-4.3,9.7-9.7,9.7c-5.4,0-9.7-4.3-9.7-9.7C21.9,4.3,26.2,0,31.6,0 M31.6,15.1
			c3,0,5.4-2.4,5.4-5.4c0-3-2.4-5.4-5.4-5.4c-2.9,0-5.4,2.5-5.4,5.4C26.3,12.7,28.7,15.1,31.6,15.1"/>
		<path d="M48.4,0.5c0-0.3,0.2-0.5,0.5-0.5h0.7l10.8,10.3h0V0.8c0-0.3,0.2-0.5,0.5-0.5h3.2c0.3,0,0.5,0.2,0.5,0.5v18.1
			c0,0.3-0.2,0.5-0.5,0.5h-0.4c-0.1,0-0.3-0.1-0.4-0.1L52.7,8.6h0v10.1c0,0.3-0.2,0.5-0.5,0.5H49c-0.3,0-0.5-0.2-0.5-0.5L48.4,0.5z"
			/>
		<path d="M73.6,0.8c0-0.3,0.2-0.5,0.5-0.5h6.6c5.2,0,9.5,4.2,9.5,9.4c0,5.2-4.3,9.5-9.5,9.5h-6.6c-0.3,0-0.5-0.2-0.5-0.5V0.8z
			 M80.4,15.1c3,0,5.3-2.4,5.3-5.5c0-3-2.2-5.4-5.3-5.4h-2.6v10.9H80.4z"/>
		<path d="M97.1,0.8c0-0.3,0.2-0.5,0.5-0.5h3.3c0.3,0,0.5,0.2,0.5,0.5v10.9c0,1.9,1.4,3.4,3.3,3.4c1.9,0,3.4-1.5,3.4-3.4V0.8
			c0-0.3,0.2-0.5,0.5-0.5h3.3c0.3,0,0.5,0.2,0.5,0.5v11.1c0,4.1-3.4,7.5-7.7,7.5c-4.2,0-7.7-3.4-7.7-7.5V0.8z"/>
		<path d="M129,0c2.7,0,4.7,0.8,6.5,2.5c0.2,0.2,0.2,0.5,0,0.8l-2.1,2.2c-0.2,0.2-0.5,0.2-0.7,0c-1-0.9-2.3-1.4-3.6-1.4
			c-3,0-5.3,2.5-5.3,5.5c0,3,2.3,5.5,5.3,5.5c1.3,0,2.6-0.5,3.6-1.3c0.2-0.2,0.5-0.2,0.7,0l2.1,2.2c0.2,0.2,0.2,0.5,0,0.7
			c-1.8,1.8-4.1,2.6-6.5,2.6c-5.4,0-9.7-4.3-9.7-9.7C119.3,4.3,123.6,0,129,0"/>
		<path d="M146.1,4.2h-3.9c-0.3,0-0.5-0.2-0.5-0.5V0.8c0-0.3,0.2-0.5,0.5-0.5h12c0.3,0,0.5,0.2,0.5,0.5v2.9c0,0.3-0.2,0.5-0.5,0.5
			h-3.9v14.4c0,0.3-0.2,0.5-0.5,0.5h-3.2c-0.3,0-0.5-0.2-0.5-0.5V4.2z"/>
		<path d="M169.6,0c5.4,0,9.7,4.3,9.7,9.7c0,5.4-4.3,9.7-9.7,9.7c-5.4,0-9.7-4.3-9.7-9.7C159.9,4.3,164.2,0,169.6,0 M169.6,15.1
			c3,0,5.4-2.4,5.4-5.4c0-3-2.4-5.4-5.4-5.4c-2.9,0-5.4,2.5-5.4,5.4C164.2,12.7,166.6,15.1,169.6,15.1"/>
		<path d="M185.4,0.8c0-0.3,0.2-0.5,0.5-0.5h8.1c3.2,0,5.9,2.6,5.9,5.8c0,2.5-1.6,4.5-4,5.4l3.7,6.8c0.2,0.3,0,0.8-0.5,0.8h-3.6
			c-0.2,0-0.4-0.1-0.4-0.2l-3.6-7.1h-1.9v6.9c0,0.3-0.2,0.5-0.5,0.5h-3.2c-0.3,0-0.5-0.2-0.5-0.5V0.8z M193.6,8.3c1.1,0,2-1,2-2.2
			c0-1.1-0.9-2-2-2h-4v4.2H193.6z"/>
	</g>
</g>
</svg>
