<svg width="200" height="49" viewBox="0 0 200 49" fill="none" xmlns="http://www.w3.org/2000/svg">
<g clip-path="url(#clip0_2041_29)">
<path d="M106.531 17.4448C105.886 16.9219 105.143 16.5339 104.345 16.3038C103.47 16.0486 102.563 15.9219 101.652 15.9278C100.47 15.9091 99.2984 16.1565 98.2248 16.6518C97.3205 17.0825 96.5406 17.7363 95.9588 18.5518C95.3687 17.7308 94.5764 17.0763 93.6588 16.6518C92.5638 16.1561 91.3727 15.9089 90.1708 15.9278C89.2479 15.9201 88.3292 16.0523 87.4458 16.3198C86.6454 16.5607 85.8986 16.9527 85.2458 17.4748C84.6167 17.9914 84.1122 18.6432 83.7698 19.3818C83.3954 20.218 83.211 21.1268 83.2298 22.0428V32.1428H87.1408V23.2428C87.0902 22.7264 87.145 22.2051 87.302 21.7105C87.4589 21.216 87.7147 20.7585 88.0538 20.3658C88.7469 19.7933 89.6219 19.4878 90.5207 19.5045C91.4194 19.5212 92.2825 19.859 92.9538 20.4568C93.3197 20.8842 93.596 21.3809 93.7662 21.9172C93.9365 22.4535 93.9972 23.0185 93.9448 23.5788V32.1458H97.8558V23.5758C97.8033 23.0156 97.8639 22.4506 98.034 21.9143C98.204 21.378 98.4801 20.8813 98.8458 20.4538C99.1748 20.14 99.5626 19.8944 99.9868 19.7311C100.411 19.5677 100.863 19.4897 101.318 19.5018C102.206 19.4541 103.077 19.7576 103.743 20.3468C104.074 20.7408 104.322 21.1969 104.474 21.6884C104.626 22.18 104.678 22.6969 104.627 23.2088V32.1428H108.538V22.0148C108.557 21.0987 108.372 20.1898 107.997 19.3538C107.655 18.6176 107.155 17.9658 106.533 17.4448" fill="#0f172a"/>
<path d="M114.812 22.8747C114.932 21.9369 115.392 21.0755 116.104 20.4537C116.872 19.7672 117.875 19.4033 118.904 19.4377C119.942 19.3922 120.958 19.7453 121.744 20.4247C122.456 21.0521 122.9 21.9292 122.984 22.8747H114.812ZM118.936 16.0157C117.853 15.9738 116.773 16.159 115.765 16.5592C114.757 16.9594 113.844 17.5659 113.085 18.3397C112.339 19.1158 111.756 20.0332 111.37 21.0381C110.983 22.0429 110.802 23.1148 110.836 24.1907C110.79 25.287 110.974 26.3808 111.377 27.4013C111.78 28.4219 112.392 29.3466 113.175 30.1157C113.988 30.8742 114.944 31.4637 115.987 31.8499C117.03 32.2362 118.139 32.4115 119.25 32.3657C120.935 32.4192 122.597 31.9547 124.01 31.0347C125.189 30.2879 126.13 29.2201 126.723 27.9567L123.076 26.8817C122.718 27.5545 122.17 28.1071 121.501 28.4711C120.831 28.835 120.069 28.9942 119.31 28.9287C118.177 28.9966 117.058 28.6544 116.156 27.9647C115.397 27.3195 114.916 26.4071 114.812 25.4167H126.842C126.912 24.9421 126.942 24.4624 126.932 23.9827C127.001 21.8735 126.229 19.8233 124.787 18.2827C124.026 17.5143 123.112 16.9153 122.104 16.5251C121.095 16.135 120.016 15.9624 118.936 16.0187" fill="#0f172a"/>
<path d="M147.392 19.6028C148.282 19.5786 149.156 19.8462 149.88 20.3648C150.517 20.7935 150.98 21.4342 151.188 22.1728L154.954 21.0968C154.529 19.6682 153.63 18.4269 152.406 17.5768C150.781 16.4416 148.816 15.8981 146.839 16.0369C144.861 16.1758 142.992 16.9886 141.541 18.3398C140.774 19.0966 140.17 20.0031 139.767 21.0031C139.365 22.0032 139.173 23.0752 139.202 24.1528C139.234 25.6745 139.678 27.159 140.489 28.4471C141.3 29.7353 142.446 30.7786 143.804 31.4651C145.163 32.1517 146.682 32.4556 148.2 32.3444C149.718 32.2332 151.177 31.711 152.421 30.8338C153.641 29.9825 154.535 28.7409 154.954 27.3138L151.188 26.2678C150.976 26.9908 150.509 27.6122 149.873 28.0168C149.143 28.5148 148.275 28.7708 147.392 28.7488C146.817 28.7643 146.245 28.6502 145.72 28.4148C145.195 28.1793 144.729 27.8287 144.358 27.3888C143.577 26.4972 143.156 25.3462 143.177 24.1608C143.148 22.975 143.567 21.822 144.351 20.9318C144.728 20.4984 145.196 20.1543 145.722 19.9244C146.248 19.6946 146.818 19.5847 147.392 19.6028Z" fill="#0f172a"/>
<path d="M133.799 16.3299C132.999 16.5708 132.252 16.9628 131.599 17.4849C130.968 18.0014 130.462 18.654 130.118 19.3939C129.743 20.2302 129.559 21.1394 129.577 22.0559V32.1559H133.499V23.2559C133.449 22.7396 133.504 22.2185 133.661 21.7242C133.818 21.2298 134.074 20.7725 134.412 20.3799C135.079 19.7878 135.949 19.4789 136.839 19.5189C137.464 19.4997 138.085 19.6044 138.668 19.8269V16.1969C137.97 16.0238 137.253 15.9368 136.533 15.9379C135.61 15.9297 134.691 16.0619 133.808 16.3299" fill="#0f172a"/>
<path d="M178.134 16.3299C177.334 16.571 176.587 16.9631 175.934 17.4849C175.303 18.0014 174.797 18.654 174.453 19.3939C174.079 20.2303 173.894 21.1395 173.913 22.0559V32.1559H177.824V23.2559C177.774 22.7397 177.829 22.2187 177.985 21.7243C178.142 21.2299 178.398 20.7725 178.736 20.3799C179.403 19.7878 180.273 19.4789 181.163 19.5189C181.788 19.4996 182.409 19.6043 182.992 19.8269V16.1969C182.294 16.0238 181.577 15.9368 180.857 15.9379C179.934 15.9297 179.015 16.0619 178.131 16.3299" fill="#0f172a"/>
<path d="M167.36 25.047C167.41 25.5631 167.355 26.0842 167.199 26.5786C167.042 27.0729 166.786 27.5303 166.448 27.923C165.858 28.4552 165.092 28.7497 164.298 28.7497C163.503 28.7497 162.737 28.4552 162.148 27.923C161.809 27.5301 161.553 27.0725 161.397 26.578C161.24 26.0835 161.185 25.5623 161.236 25.046V16.146H157.325V26.246C157.306 27.162 157.49 28.0708 157.865 28.907C158.208 29.6475 158.715 30.3005 159.347 30.817C159.999 31.3389 160.746 31.731 161.547 31.972C162.398 32.2299 163.283 32.362 164.174 32.364C165.15 32.3856 166.123 32.2547 167.059 31.976C167.859 31.7348 168.606 31.3428 169.259 30.821C169.89 30.3041 170.396 29.6511 170.74 28.911C171.114 28.0749 171.299 27.166 171.28 26.25V16.15H167.36V25.047Z" fill="#0f172a"/>
<path d="M195.908 16.1426V25.0426C195.96 25.5592 195.906 26.0809 195.75 26.576C195.594 27.0712 195.338 27.5293 194.999 27.9226C194.41 28.4549 193.644 28.7497 192.849 28.7497C192.055 28.7497 191.289 28.4549 190.699 27.9226C190.36 27.5298 190.105 27.0722 189.948 26.5777C189.791 26.0832 189.736 25.562 189.786 25.0456V16.1456H185.875V26.2456C185.856 27.1617 186.041 28.0706 186.416 28.9066C186.759 29.647 187.266 30.3 187.897 30.8166C188.55 31.3386 189.297 31.7307 190.097 31.9716C190.949 32.2303 191.834 32.362 192.724 32.3626C193.7 32.385 194.673 32.2544 195.608 31.9756C195.714 31.9426 195.808 31.9016 195.916 31.8646V34.7366C195.965 35.2515 195.909 35.7709 195.751 36.2635C195.594 36.7561 195.338 37.2116 194.999 37.6026C194.41 38.1352 193.644 38.43 192.849 38.43C192.055 38.43 191.289 38.1352 190.699 37.6026C190.126 36.9742 189.808 36.1535 189.81 35.3026H185.875V35.9186C185.856 36.8347 186.041 37.7436 186.416 38.5796C186.759 39.32 187.266 39.973 187.897 40.4896C188.55 41.0116 189.297 41.4037 190.097 41.6446C190.949 41.903 191.834 42.0351 192.724 42.0366C193.7 42.0581 194.673 41.9275 195.608 41.6496C196.409 41.4082 197.155 41.0162 197.808 40.4946C198.44 39.9777 198.946 39.3248 199.289 38.5846C199.664 37.7486 199.849 36.8397 199.83 35.9236V16.1426H195.908Z" fill="#0f172a"/>
<path d="M25.235 1.88209C24.4796 1.1292 23.549 0.575645 22.5269 0.271113C21.5047 -0.0334195 20.4229 -0.0794023 19.3786 0.13729C18.3343 0.353981 17.3602 0.826568 16.5436 1.51264C15.727 2.19871 15.0935 3.07679 14.7 4.06809L0.454982 39.9871C0.136566 40.7745 -0.0229283 41.6172 -0.0143175 42.4666C-0.00570664 43.3159 0.170837 44.1552 0.505153 44.936C0.839468 45.7168 1.32495 46.4238 1.93363 47.0163C2.54232 47.6087 3.2622 48.0749 4.0518 48.3879C4.8414 48.701 5.68513 48.8547 6.5344 48.8404C7.38368 48.826 8.22171 48.6437 9.00025 48.3041C9.7788 47.9645 10.4825 47.4742 11.0708 46.8615C11.659 46.2488 12.1203 45.5258 12.428 44.7341L26.669 8.81509C27.1335 7.64575 27.2452 6.36595 26.9903 5.13382C26.7355 3.90169 26.1252 2.77122 25.235 1.88209Z" fill="url(#paint0_linear_2041_29)"/>
<path d="M16.1059 1.8819C16.8611 1.12803 17.7917 0.573551 18.8142 0.268278C19.8366 -0.0369943 20.9189 -0.0835038 21.9638 0.132927C23.0087 0.349358 23.9834 0.821952 24.8005 1.50826C25.6175 2.19456 26.2513 3.07308 26.6449 4.0649L40.8859 39.9839C41.5019 41.5688 41.466 43.333 40.7861 44.8916C40.1062 46.4502 38.8376 47.6766 37.2568 48.3034C35.6761 48.9301 33.9117 48.9062 32.3485 48.2369C30.7854 47.5676 29.5504 46.3073 28.9129 44.7309L14.6719 8.81489C14.2079 7.64547 14.0965 6.3658 14.3513 5.13378C14.6062 3.90176 15.2161 2.7713 16.1059 1.8819Z" fill="url(#paint1_linear_2041_29)"/>
<path d="M53.7174 1.8819C52.9622 1.12803 52.0316 0.573551 51.0091 0.268278C49.9867 -0.0369943 48.9044 -0.0835038 47.8595 0.132927C46.8146 0.349358 45.8399 0.821952 45.0228 1.50826C44.2058 2.19456 43.572 3.07308 43.1784 4.0649L28.9384 39.9839C28.62 40.7713 28.4605 41.614 28.4691 42.4634C28.4777 43.3127 28.6542 44.152 28.9886 44.9328C29.3229 45.7137 29.8083 46.4206 30.417 47.0131C31.0257 47.6055 31.7456 48.0717 32.5352 48.3847C33.3248 48.6978 34.1685 48.8515 35.0178 48.8372C35.8671 48.8228 36.7051 48.6405 37.4837 48.3009C38.2622 47.9613 38.9659 47.471 39.5541 46.8583C40.1424 46.2456 40.6037 45.5226 40.9114 44.7309L55.1514 8.8119C55.6152 7.64295 55.7266 6.36376 55.4718 5.13223C55.2169 3.90071 54.607 2.77077 53.7174 1.8819Z" fill="url(#paint2_linear_2041_29)"/>
<path d="M44.608 1.8818C45.3634 1.12841 46.294 0.574372 47.3164 0.269392C48.3387 -0.0355873 49.4208 -0.0819601 50.4655 0.134434C51.5102 0.350828 52.4848 0.823217 53.3019 1.50921C54.119 2.1952 54.753 3.07334 55.147 4.0648L69.388 39.9838C69.7064 40.7712 69.8659 41.6139 69.8573 42.4633C69.8487 43.3126 69.6721 44.1519 69.3378 44.9327C69.0035 45.7136 68.518 46.4205 67.9093 47.013C67.3006 47.6054 66.5808 48.0716 65.7912 48.3846C65.0016 48.6977 64.1578 48.8514 63.3086 48.8371C62.4593 48.8227 61.6213 48.6404 60.8427 48.3008C60.0642 47.9612 59.3605 47.4709 58.7722 46.8582C58.1839 46.2455 57.7227 45.5225 57.415 44.7308L43.174 8.8168C42.7092 7.64718 42.5973 6.367 42.8522 5.13449C43.107 3.90198 43.7174 2.77117 44.608 1.8818Z" fill="url(#paint3_linear_2041_29)"/>
<path d="M63.4038 48.8087C66.96 48.8087 69.8428 45.9258 69.8428 42.3697C69.8428 38.8135 66.96 35.9307 63.4038 35.9307C59.8477 35.9307 56.9648 38.8135 56.9648 42.3697C56.9648 45.9258 59.8477 48.8087 63.4038 48.8087Z" fill="#004FCF"/>
</g>
<defs>
<linearGradient id="paint0_linear_2041_29" x1="9.89089" y1="27.5966" x2="26.375" y2="23.1728" gradientUnits="userSpaceOnUse">
<stop stop-color="#004FCF"/>
<stop offset="0.017" stop-color="#034FD0"/>
<stop offset="0.248" stop-color="#3259E0"/>
<stop offset="0.469" stop-color="#5761ED"/>
<stop offset="0.674" stop-color="#7166F7"/>
<stop offset="0.857" stop-color="#8169FD"/>
<stop offset="1" stop-color="#876BFF"/>
</linearGradient>
<linearGradient id="paint1_linear_2041_29" x1="21.6989" y1="21.3061" x2="50.068" y2="25.769" gradientUnits="userSpaceOnUse">
<stop stop-color="#876BFF"/>
<stop offset="0.143" stop-color="#A060E7"/>
<stop offset="0.406" stop-color="#C950C1"/>
<stop offset="0.646" stop-color="#E644A5"/>
<stop offset="0.852" stop-color="#F83D94"/>
<stop offset="1" stop-color="#FF3B8F"/>
</linearGradient>
<linearGradient id="paint2_linear_2041_29" x1="42.4712" y1="33.991" x2="38.6613" y2="8.29888" gradientUnits="userSpaceOnUse">
<stop stop-color="#FF3B8F"/>
<stop offset="0.16" stop-color="#FF3B87"/>
<stop offset="0.404" stop-color="#FF3B72"/>
<stop offset="0.701" stop-color="#FF3B4F"/>
<stop offset="1" stop-color="#FF3B26"/>
</linearGradient>
<linearGradient id="paint3_linear_2041_29" x1="39.1907" y1="7.32611" x2="80.0458" y2="19.9389" gradientUnits="userSpaceOnUse">
<stop stop-color="#FF3B26"/>
<stop offset="0.193" stop-color="#FF651E"/>
<stop offset="0.508" stop-color="#FFA612"/>
<stop offset="0.737" stop-color="#FFCE0A"/>
<stop offset="0.856" stop-color="#FFDE08"/>
</linearGradient>
<clipPath id="clip0_2041_29">
<rect width="199.82" height="48.808" fill="white"/>
</clipPath>
</defs>
</svg>
